<svg width="32" height="32" viewBox="0 0 31.999996 31.999992" fill="currentColor" aria-hidden="true" data-slot="icon" version="1.1" id="fluxbit" xml:space="preserve" xmlns="http://www.w3.org/2000/svg" xmlns:svg="http://www.w3.org/2000/svg">
  <g transform="translate(-14.895488,-76.954309)">
    <g transform="matrix(0.03883817,0,0,0.03883817,-18.205404,74.713827)">
      <path d="m 1089.7476,425.74218 c 57.5807,-87.88823 229.5277,-143.25616 138.5588,-203.04776 -35.7449,-21.73146 3.8792,-32.89434 29.8425,-24.79965 56.6117,17.64991 66.3127,69.78167 57.5963,102.44516 -25.5052,95.57597 -173.0966,108.96892 -164.5857,215.80641 14.7244,113.56667 178.4751,104.15893 218.0103,9.19107 13.1682,-31.63159 3.7281,-58.61968 -21.3229,-60.95897 -43.9037,-4.09979 -79.283,70.54958 -103.9213,79.24255 -23.0709,8.13988 -59.7994,-24.2899 -13.7305,-48.62764 51.675,-26.4149 68.1608,-106.93054 145.1876,-91.59293 84.7516,20.2064 88.9232,201.5204 -41.4396,268.20255 -164.4932,84.14041 -337.34273,-103.68571 -244.1955,-245.86079 z" />
      <rect width="55.374088" height="54.900341" x="1366.8969" y="321.34384" ry="10.65924" />
      <path d="M 1264.2422,57.6875 A 411.96594,411.96594 0 0 0 852.27734,469.65234 411.96594,411.96594 0 0 0 1264.2422,881.61914 411.96594,411.96594 0 0 0 1676.209,469.65234 411.96594,411.96594 0 0 0 1264.2422,57.6875 Z m 0,40.025391 A 371.93936,371.93936 0 0 1 1636.1816,469.65234 371.93936,371.93936 0 0 1 1264.2422,841.5918 371.93936,371.93936 0 0 1 892.30469,469.65234 371.93936,371.93936 0 0 1 1264.2422,97.712891 Z" />
    </g>
  </g>
</svg>
